# xmcd
#
# Track frame offsets:
#	150
#	13212
#	23250
#	34912
#	48322
#	58665
#	68985
#	80322
#	93260
#	103087
#	115672
#	125590
#	134387
#	141732
#	149922
#	160727
#	168735
#	180057
#	190897
#	201680
#	216255
#	224902
#	234787
#	244562
#	259280
#
# Disc length: 3736 seconds
#
# Revision: 1
# Processed by: cddbd v1.5.1PL0 Copyright (c) Steve Scherf et al.
# Submitted via: CDex 1.50Beta5
#
DISCID=7c0e9619
DTITLE=25名 - おやこでうたおう 2
DYEAR=1900
DGENRE=
TTITLE0=パタパタママ
TTITLE1=いっぽんでもニンジン
TTITLE2=おしえて
TTITLE3=よあけのみち
TTITLE4=山口さんちのツトムくん
TTITLE5=北風小僧の寒太郎
TTITLE6=動物園にいこう
TTITLE7=オブラディ・オブラダ
TTITLE8=オオカミのおおきな王子様
TTITLE9=ツッピンとびうお
TTITLE10=ちかてつ
TTITLE11=そうだったらいいのにな
TTITLE12=おふろジャブジャブ
TTITLE13=五匹の子ぶたとチャールストン
TTITLE14=チキ・チキ・バン・バン
TTITLE15=小さな世界
TTITLE16=虫歯の子どもの誕生日
TTITLE17=南の島のハメハメハ大王
TTITLE18=赤鬼と青鬼のタンゴ
TTITLE19=めだかの兄弟
TTITLE20=長くつ下のピッピ
TTITLE21=おいでラスカル
TTITLE22=にんげんっていいな
TTITLE23=大草原の小さな家のうた
TTITLE24=思い出のアルバム
EXTD=
EXTT0=
EXTT1=
EXTT2=
EXTT3=
EXTT4=
EXTT5=
EXTT6=
EXTT7=
EXTT8=
EXTT9=
EXTT10=
EXTT11=
EXTT12=
EXTT13=
EXTT14=
EXTT15=
EXTT16=
EXTT17=
EXTT18=
EXTT19=
EXTT20=
EXTT21=
EXTT22=
EXTT23=
EXTT24=
PLAYORDER=
